<?xml version="1.0" encoding="utf-8"?>
<!-- Designed by Vexels.com - 2016 All Rights Reserved - https://vexels.com/terms-and-conditions/  -->

<svg version="1.1" id="Layer_1" xmlns="http://www.w3.org/2000/svg" xmlns:xlink="http://www.w3.org/1999/xlink" x="0px" y="0px"
	 width="1200px" height="1200px" viewBox="0 0 1200 1200" enable-background="new 0 0 1200 1200" xml:space="preserve">
<g>
	<rect x="337.837" y="50" fill="#1A1413" width="525.147" height="45.271"/>
	<rect x="337.837" y="145.971" fill="#1A1413" width="525.147" height="45.275"/>
	<rect x="337.837" y="91.641" fill="#1A1413" width="47.097" height="68.819"/>
	<rect x="385.795" y="181.526" fill="#1A1413" width="47.092" height="297.35"/>
	<rect x="768.926" y="181.526" fill="#1A1413" width="47.097" height="297.35"/>
	<rect x="815.904" y="91.641" fill="#1A1413" width="47.097" height="68.819"/>
	<rect x="529.077" y="381.675" fill="#1A1413" width="47.06" height="52.421"/>
	<rect x="529.077" y="478.471" fill="#1A1413" width="47.06" height="55.114"/>
	<rect x="625.202" y="478.471" fill="#1A1413" width="47.056" height="55.114"/>
	<rect x="721.319" y="478.471" fill="#1A1413" width="47.06" height="55.114"/>
	<rect x="529.077" y="572.574" fill="#1A1413" width="47.06" height="55.117"/>
	<rect x="624.514" y="381.675" fill="#1A1413" width="47.065" height="52.421"/>
	<rect x="624.514" y="574.592" fill="#1A1413" width="47.065" height="52.417"/>
	<rect x="578.136" y="434.78" fill="#1A1413" width="47.066" height="52.417"/>
	<rect x="578.136" y="526.87" fill="#1A1413" width="47.066" height="53.105"/>
	<rect x="673.588" y="526.87" fill="#1A1413" width="47.065" height="53.105"/>
	<rect x="578.136" y="669.373" fill="#1A1413" width="47.066" height="56.458"/>
	<rect x="434.29" y="669.373" fill="#1A1413" width="47.057" height="56.458"/>
	<rect x="385.553" y="718.105" fill="#1A1413" width="47.061" height="307.202"/>
	<rect x="768.693" y="718.105" fill="#1A1413" width="47.056" height="307.202"/>
	<rect x="720.64" y="669.373" fill="#1A1413" width="47.06" height="56.458"/>
	<rect x="482.015" y="434.78" fill="#1A1413" width="47.061" height="52.417"/>
	<rect x="434.29" y="479.809" fill="#1A1413" width="47.057" height="52.421"/>
	<rect x="482.015" y="526.191" fill="#1A1413" width="47.061" height="53.101"/>
	<rect x="482.015" y="622.312" fill="#1A1413" width="47.061" height="53.096"/>
	<rect x="672.909" y="622.312" fill="#1A1413" width="47.06" height="53.096"/>
	<rect x="336.835" y="1008.841" fill="#1A1413" width="527" height="43.69"/>
	<rect x="336.835" y="1106.975" fill="#1A1413" width="527" height="43.025"/>
	<rect x="336.165" y="1010.185" fill="#1A1413" width="49.739" height="123.026"/>
	<rect x="814.092" y="1010.185" fill="#1A1413" width="49.743" height="123.026"/>
	<rect x="480.677" y="964.477" fill="#1A1413" width="47.735" height="51.087"/>
	<rect x="576.802" y="964.477" fill="#1A1413" width="47.73" height="51.087"/>
	<rect x="672.919" y="964.477" fill="#1A1413" width="47.735" height="51.087"/>
	<rect x="624.533" y="914.073" fill="#1A1413" width="47.726" height="51.074"/>
	<rect x="529.09" y="914.073" fill="#1A1413" width="47.726" height="51.074"/>
	<rect x="576.815" y="862.972" fill="#1A1413" width="47.727" height="51.101"/>
</g>
</svg>
